<svg width="686" height="214" viewBox="0 0 686 214" fill="none" xmlns="http://www.w3.org/2000/svg">
<path d="M59.4799 12.24L98.3599 112.56C99.9599 116.4 101.667 119.067 103.48 120.56C105.4 121.947 107.16 122.693 108.76 122.8V126C105.987 125.787 102.627 125.68 98.6799 125.68C94.8399 125.573 90.8933 125.52 86.8399 125.52C82.1466 125.52 77.7733 125.573 73.7199 125.68C69.6666 125.68 66.3599 125.787 63.7999 126V122.8C69.2399 122.587 72.7066 121.68 74.1999 120.08C75.6933 118.373 75.3733 114.8 73.2399 109.36L45.0799 33.36L47.9599 29.84L22.3599 96.24C20.3333 101.573 19.1066 105.947 18.6799 109.36C18.2533 112.773 18.5199 115.44 19.4799 117.36C20.4399 119.28 22.0399 120.667 24.2799 121.52C26.5199 122.267 29.2933 122.693 32.5999 122.8V126C29.1866 125.787 25.8799 125.68 22.6799 125.68C19.4799 125.573 16.2799 125.52 13.0799 125.52C10.7333 125.52 8.49326 125.573 6.35992 125.68C4.33326 125.68 2.51992 125.787 0.919922 126V122.8C3.26659 122.267 5.55992 120.88 7.79992 118.64C10.1466 116.4 12.3866 112.507 14.5199 106.96L51.1599 12.24C52.4399 12.3466 53.8266 12.4 55.3199 12.4C56.8133 12.4 58.1999 12.3466 59.4799 12.24ZM73.3999 79.92V83.12H25.7199L27.3199 79.92H73.3999Z" fill="#F8FAE5"/>
<path d="M142.404 156.08C136.11 156.08 130.404 155.493 125.284 154.32C120.164 153.147 116.11 151.387 113.124 149.04C110.137 146.8 108.644 143.92 108.644 140.4C108.644 136.987 110.137 133.947 113.124 131.28C116.11 128.613 120.484 126.587 126.244 125.2L127.364 127.76C125.337 128.933 123.79 130.533 122.724 132.56C121.657 134.587 121.124 136.72 121.124 138.96C121.124 143.547 123.204 147.067 127.364 149.52C131.63 152.08 137.284 153.36 144.324 153.36C149.124 153.36 153.55 152.72 157.604 151.44C161.657 150.16 164.91 148.187 167.364 145.52C169.817 142.853 171.044 139.547 171.044 135.6C171.044 132.293 169.817 129.52 167.364 127.28C165.017 125.04 160.27 123.92 153.124 123.92H142.564C138.617 123.92 134.99 123.493 131.684 122.64C128.484 121.787 125.924 120.4 124.004 118.48C122.084 116.56 121.124 113.893 121.124 110.48C121.124 106.32 122.83 102.587 126.244 99.28C129.657 95.8666 134.99 92.56 142.244 89.36L144.004 90.8C141.337 92.1866 138.937 93.68 136.804 95.28C134.777 96.88 133.764 98.9066 133.764 101.36C133.764 104.773 136.11 106.48 140.804 106.48H158.884C164.43 106.48 169.337 107.173 173.604 108.56C177.977 109.947 181.444 112.133 184.004 115.12C186.564 118.107 187.844 122.053 187.844 126.96C187.844 132.08 186.19 136.827 182.884 141.2C179.577 145.68 174.564 149.253 167.844 151.92C161.23 154.693 152.75 156.08 142.404 156.08ZM143.844 91.92C138.084 91.92 132.857 91.0666 128.164 89.36C123.577 87.5466 119.95 84.7733 117.284 81.04C114.617 77.2 113.284 72.3466 113.284 66.48C113.284 60.6133 114.617 55.8133 117.284 52.08C119.95 48.3466 123.577 45.5733 128.164 43.76C132.857 41.9466 138.084 41.04 143.844 41.04C149.71 41.04 154.937 41.9466 159.524 43.76C164.11 45.5733 167.737 48.3466 170.404 52.08C173.07 55.8133 174.404 60.6133 174.404 66.48C174.404 72.3466 173.07 77.2 170.404 81.04C167.737 84.7733 164.11 87.5466 159.524 89.36C154.937 91.0666 149.71 91.92 143.844 91.92ZM143.844 89.04C147.044 89.04 149.55 87.44 151.364 84.24C153.284 80.9333 154.244 75.0133 154.244 66.48C154.244 57.9466 153.284 52.08 151.364 48.88C149.55 45.5733 147.044 43.92 143.844 43.92C140.644 43.92 138.084 45.5733 136.164 48.88C134.35 52.08 133.444 57.9466 133.444 66.48C133.444 75.0133 134.35 80.9333 136.164 84.24C138.084 87.44 140.644 89.04 143.844 89.04ZM168.004 54.64L164.964 53.52C166.564 49.5733 169.177 46.2666 172.804 43.6C176.43 40.8266 180.27 39.44 184.324 39.44C187.417 39.44 189.817 40.2933 191.524 42C193.337 43.7066 194.244 46.1066 194.244 49.2C194.244 52.4 193.39 54.7466 191.684 56.24C189.977 57.7333 188.11 58.48 186.084 58.48C184.27 58.48 182.617 57.8933 181.124 56.72C179.63 55.44 178.777 53.52 178.564 50.96C178.35 48.2933 179.204 44.9866 181.124 41.04L182.724 41.68C178.564 43.28 175.47 45.04 173.444 46.96C171.417 48.88 169.604 51.44 168.004 54.64Z" fill="#F8FAE5"/>
<path d="M252.311 41.04C255.618 41.04 258.338 41.7333 260.471 43.12C262.711 44.5066 264.365 46.2666 265.431 48.4C266.498 50.5333 267.031 52.7733 267.031 55.12C267.031 58.64 265.965 61.5733 263.831 63.92C261.805 66.2666 259.085 67.44 255.671 67.44C252.471 67.44 249.858 66.5866 247.831 64.88C245.805 63.1733 244.791 60.8266 244.791 57.84C244.791 55.1733 245.431 52.9333 246.711 51.12C248.098 49.3066 249.645 47.8666 251.351 46.8C250.178 46.16 248.845 45.9466 247.351 46.16C244.791 46.3733 242.445 47.28 240.311 48.88C238.178 50.48 236.365 52.4533 234.871 54.8C233.378 57.1466 232.205 59.6533 231.351 62.32C230.605 64.9866 230.231 67.5466 230.231 70V109.52C230.231 114.747 231.565 118.267 234.231 120.08C236.898 121.787 240.791 122.64 245.911 122.64V126C243.458 125.893 239.885 125.787 235.191 125.68C230.605 125.467 225.805 125.36 220.791 125.36C216.631 125.36 212.471 125.467 208.311 125.68C204.258 125.787 201.218 125.893 199.191 126V122.64C203.138 122.64 205.911 121.84 207.511 120.24C209.218 118.64 210.071 115.6 210.071 111.12V60.72C210.071 55.92 209.271 52.4 207.671 50.16C206.178 47.8133 203.351 46.64 199.191 46.64V43.28C202.605 43.6 205.911 43.76 209.111 43.76C213.058 43.76 216.791 43.6 220.311 43.28C223.938 42.8533 227.245 42.2666 230.231 41.52V58.16C231.511 55.1733 233.165 52.4 235.191 49.84C237.325 47.28 239.831 45.2 242.711 43.6C245.698 41.8933 248.898 41.04 252.311 41.04Z" fill="#F8FAE5"/>
<path d="M310.769 41.04C318.129 41.04 324.635 42.5333 330.289 45.52C336.049 48.4 340.582 53.04 343.889 59.44C347.302 65.84 349.009 74.2666 349.009 84.72C349.009 95.1733 347.302 103.6 343.889 110C340.582 116.4 336.049 121.04 330.289 123.92C324.635 126.8 318.129 128.24 310.769 128.24C303.409 128.24 296.849 126.8 291.089 123.92C285.329 121.04 280.795 116.4 277.489 110C274.182 103.6 272.529 95.1733 272.529 84.72C272.529 74.2666 274.182 65.84 277.489 59.44C280.795 53.04 285.329 48.4 291.089 45.52C296.849 42.5333 303.409 41.04 310.769 41.04ZM310.769 44.24C305.755 44.24 301.649 47.44 298.449 53.84C295.355 60.1333 293.809 70.4266 293.809 84.72C293.809 99.0133 295.355 109.307 298.449 115.6C301.649 121.893 305.755 125.04 310.769 125.04C315.675 125.04 319.729 121.893 322.929 115.6C326.129 109.307 327.729 99.0133 327.729 84.72C327.729 70.4266 326.129 60.1333 322.929 53.84C319.729 47.44 315.675 44.24 310.769 44.24Z" fill="#F8FAE5"/>
<path d="M404.695 12.72V15.92C401.282 16.0266 398.668 16.4533 396.855 17.2C395.148 17.84 393.975 19.12 393.335 21.04C392.695 22.8533 392.375 25.7333 392.375 29.68V109.04C392.375 112.88 392.695 115.76 393.335 117.68C393.975 119.6 395.148 120.88 396.855 121.52C398.668 122.16 401.282 122.587 404.695 122.8V126C402.028 125.787 398.615 125.68 394.455 125.68C390.295 125.573 386.082 125.52 381.815 125.52C377.015 125.52 372.535 125.573 368.375 125.68C364.215 125.68 360.802 125.787 358.135 126V122.8C361.655 122.587 364.268 122.16 365.975 121.52C367.788 120.88 368.962 119.6 369.495 117.68C370.135 115.76 370.455 112.88 370.455 109.04V29.68C370.455 25.7333 370.135 22.8533 369.495 21.04C368.962 19.12 367.788 17.84 365.975 17.2C364.268 16.4533 361.655 16.0266 358.135 15.92V12.72C360.802 12.8266 364.215 12.9333 368.375 13.04C372.535 13.1466 377.015 13.2 381.815 13.2C386.082 13.2 390.295 13.1466 394.455 13.04C398.615 12.9333 402.028 12.8266 404.695 12.72Z" fill="#F8FAE5"/>
<path d="M472.256 41.04C476.736 41.04 480.309 41.6266 482.976 42.8C485.749 43.9733 487.99 45.4666 489.696 47.28C491.616 49.3066 492.949 51.92 493.696 55.12C494.549 58.32 494.976 62.64 494.976 68.08V111.12C494.976 115.6 495.776 118.64 497.376 120.24C499.083 121.84 501.91 122.64 505.856 122.64V126C503.936 125.893 500.95 125.787 496.896 125.68C492.95 125.467 489.109 125.36 485.376 125.36C481.429 125.36 477.59 125.467 473.856 125.68C470.123 125.787 467.349 125.893 465.536 126V122.64C468.949 122.64 471.35 121.84 472.736 120.24C474.123 118.64 474.816 115.6 474.816 111.12V62.64C474.816 59.76 474.55 57.2 474.016 54.96C473.483 52.6133 472.416 50.8 470.816 49.52C469.216 48.1333 466.923 47.44 463.936 47.44C460.416 47.44 457.27 48.4 454.496 50.32C451.83 52.24 449.696 54.9066 448.096 58.32C446.603 61.6266 445.856 65.36 445.856 69.52V111.12C445.856 115.6 446.55 118.64 447.936 120.24C449.323 121.84 451.723 122.64 455.136 122.64V126C453.323 125.893 450.603 125.787 446.976 125.68C443.349 125.467 439.67 125.36 435.936 125.36C431.99 125.36 427.99 125.467 423.936 125.68C419.883 125.787 416.843 125.893 414.816 126V122.64C418.763 122.64 421.536 121.84 423.136 120.24C424.843 118.64 425.696 115.6 425.696 111.12V60.72C425.696 55.92 424.896 52.4 423.296 50.16C421.803 47.8133 418.976 46.64 414.816 46.64V43.28C418.229 43.6 421.536 43.76 424.736 43.76C428.683 43.76 432.416 43.6 435.936 43.28C439.563 42.8533 442.87 42.2666 445.856 41.52V57.52C448.523 51.44 452.203 47.1733 456.896 44.72C461.59 42.2666 466.709 41.04 472.256 41.04Z" fill="#F8FAE5"/>
<path d="M588.8 0.719971V108.56C588.8 113.36 589.6 116.933 591.2 119.28C592.8 121.52 595.627 122.64 599.68 122.64V126C596.373 125.68 593.067 125.52 589.76 125.52C585.813 125.52 582.08 125.68 578.56 126C575.04 126.32 571.733 126.907 568.64 127.76V19.92C568.64 15.12 567.84 11.6 566.24 9.35997C564.747 7.01331 561.92 5.83997 557.76 5.83997V2.47998C561.173 2.79997 564.48 2.95997 567.68 2.95997C571.733 2.95997 575.52 2.79997 579.04 2.47998C582.56 2.05331 585.813 1.46664 588.8 0.719971ZM550.56 41.04C555.253 41.04 559.467 41.9466 563.2 43.76C566.933 45.5733 569.707 48.6133 571.52 52.88L569.6 54.48C568.107 51.3866 566.08 49.0933 563.52 47.6C560.96 46.1066 558.08 45.36 554.88 45.36C549.12 45.36 544.48 48.6133 540.96 55.12C537.547 61.52 535.84 71.3866 535.84 84.72C535.84 93.68 536.533 100.933 537.92 106.48C539.307 111.92 541.28 115.867 543.84 118.32C546.507 120.773 549.653 122 553.28 122C557.12 122 560.587 120.453 563.68 117.36C566.773 114.16 568.587 109.627 569.12 103.76L570.24 108.24C568.853 114.747 566.24 119.707 562.4 123.12C558.56 126.533 553.493 128.24 547.2 128.24C540.8 128.24 535.093 126.693 530.08 123.6C525.173 120.4 521.333 115.6 518.56 109.2C515.893 102.693 514.56 94.48 514.56 84.56C514.56 74.8533 516.16 66.8 519.36 60.4C522.56 53.8933 526.88 49.04 532.32 45.84C537.76 42.64 543.84 41.04 550.56 41.04Z" fill="#F8FAE5"/>
<path d="M647.487 41.04C654.847 41.04 661.354 42.5333 667.007 45.52C672.767 48.4 677.301 53.04 680.607 59.44C684.021 65.84 685.727 74.2666 685.727 84.72C685.727 95.1733 684.021 103.6 680.607 110C677.301 116.4 672.767 121.04 667.007 123.92C661.354 126.8 654.847 128.24 647.487 128.24C640.127 128.24 633.567 126.8 627.807 123.92C622.047 121.04 617.514 116.4 614.207 110C610.901 103.6 609.247 95.1733 609.247 84.72C609.247 74.2666 610.901 65.84 614.207 59.44C617.514 53.04 622.047 48.4 627.807 45.52C633.567 42.5333 640.127 41.04 647.487 41.04ZM647.487 44.24C642.474 44.24 638.367 47.44 635.167 53.84C632.074 60.1333 630.527 70.4266 630.527 84.72C630.527 99.0133 632.074 109.307 635.167 115.6C638.367 121.893 642.474 125.04 647.487 125.04C652.394 125.04 656.447 121.893 659.647 115.6C662.847 109.307 664.447 99.0133 664.447 84.72C664.447 70.4266 662.847 60.1333 659.647 53.84C656.447 47.44 652.394 44.24 647.487 44.24Z" fill="#F8FAE5"/>
<path d="M6.75992 205V177H11.9599V205H6.75992Z" fill="#F8FAE5"/>
<path d="M31.1734 183.4C32.88 183.4 34.4 183.733 35.7334 184.4C37.0934 185.067 38.16 186.093 38.9334 187.48C39.7067 188.84 40.0934 190.6 40.0934 192.76V205H35.0934V193.4C35.0934 191.507 34.64 190.093 33.7334 189.16C32.8534 188.227 31.6134 187.76 30.0134 187.76C28.84 187.76 27.8 188 26.8934 188.48C25.9867 188.96 25.28 189.68 24.7734 190.64C24.2934 191.573 24.0534 192.76 24.0534 194.2V205H19.0534V183.64H23.8134V189.4L22.9734 187.64C23.72 186.28 24.8 185.24 26.2134 184.52C27.6534 183.773 29.3067 183.4 31.1734 183.4Z" fill="#F8FAE5"/>
<path d="M55.5152 205.28C53.4619 205.28 51.6086 204.827 49.9552 203.92C48.3286 202.987 47.0486 201.707 46.1152 200.08C45.1819 198.453 44.7152 196.533 44.7152 194.32C44.7152 192.107 45.1819 190.187 46.1152 188.56C47.0486 186.933 48.3286 185.667 49.9552 184.76C51.6086 183.853 53.4619 183.4 55.5152 183.4C57.3019 183.4 58.9019 183.8 60.3152 184.6C61.7286 185.373 62.8486 186.56 63.6752 188.16C64.5019 189.76 64.9152 191.813 64.9152 194.32C64.9152 196.8 64.5152 198.853 63.7152 200.48C62.9152 202.08 61.8086 203.28 60.3952 204.08C58.9819 204.88 57.3552 205.28 55.5152 205.28ZM56.1152 201C57.3152 201 58.3819 200.733 59.3152 200.2C60.2752 199.667 61.0352 198.893 61.5952 197.88C62.1819 196.867 62.4752 195.68 62.4752 194.32C62.4752 192.933 62.1819 191.747 61.5952 190.76C61.0352 189.747 60.2752 188.973 59.3152 188.44C58.3819 187.907 57.3152 187.64 56.1152 187.64C54.9152 187.64 53.8352 187.907 52.8752 188.44C51.9419 188.973 51.1819 189.747 50.5952 190.76C50.0352 191.747 49.7552 192.933 49.7552 194.32C49.7552 195.68 50.0352 196.867 50.5952 197.88C51.1819 198.893 51.9419 199.667 52.8752 200.2C53.8352 200.733 54.9152 201 56.1152 201ZM62.5952 205V199.96L62.7952 194.28L62.3952 188.6V175.32H67.3552V205H62.5952Z" fill="#F8FAE5"/>
<path d="M83.5362 205.28C81.3495 205.28 79.4028 204.813 77.6962 203.88C75.9895 202.92 74.6428 201.613 73.6562 199.96C72.6695 198.307 72.1762 196.427 72.1762 194.32C72.1762 192.187 72.6695 190.307 73.6562 188.68C74.6428 187.027 75.9895 185.733 77.6962 184.8C79.4028 183.867 81.3495 183.4 83.5362 183.4C85.7495 183.4 87.7095 183.867 89.4162 184.8C91.1495 185.733 92.4962 187.013 93.4562 188.64C94.4428 190.267 94.9362 192.16 94.9362 194.32C94.9362 196.427 94.4428 198.307 93.4562 199.96C92.4962 201.613 91.1495 202.92 89.4162 203.88C87.7095 204.813 85.7495 205.28 83.5362 205.28ZM83.5362 201C84.7628 201 85.8562 200.733 86.8162 200.2C87.7762 199.667 88.5228 198.893 89.0562 197.88C89.6162 196.867 89.8962 195.68 89.8962 194.32C89.8962 192.933 89.6162 191.747 89.0562 190.76C88.5228 189.747 87.7762 188.973 86.8162 188.44C85.8562 187.907 84.7762 187.64 83.5762 187.64C82.3495 187.64 81.2562 187.907 80.2962 188.44C79.3628 188.973 78.6162 189.747 78.0562 190.76C77.4962 191.747 77.2162 192.933 77.2162 194.32C77.2162 195.68 77.4962 196.867 78.0562 197.88C78.6162 198.893 79.3628 199.667 80.2962 200.2C81.2562 200.733 82.3362 201 83.5362 201Z" fill="#F8FAE5"/>
<path d="M111.837 183.4C113.544 183.4 115.064 183.733 116.397 184.4C117.757 185.067 118.824 186.093 119.597 187.48C120.371 188.84 120.757 190.6 120.757 192.76V205H115.757V193.4C115.757 191.507 115.304 190.093 114.397 189.16C113.517 188.227 112.277 187.76 110.677 187.76C109.504 187.76 108.464 188 107.557 188.48C106.651 188.96 105.944 189.68 105.437 190.64C104.957 191.573 104.717 192.76 104.717 194.2V205H99.7174V183.64H104.477V189.4L103.637 187.64C104.384 186.28 105.464 185.24 106.877 184.52C108.317 183.773 109.971 183.4 111.837 183.4Z" fill="#F8FAE5"/>
<path d="M137.179 205.28C134.806 205.28 132.726 204.813 130.939 203.88C129.179 202.92 127.806 201.613 126.819 199.96C125.859 198.307 125.379 196.427 125.379 194.32C125.379 192.187 125.846 190.307 126.779 188.68C127.739 187.027 129.046 185.733 130.699 184.8C132.379 183.867 134.286 183.4 136.419 183.4C138.499 183.4 140.353 183.853 141.979 184.76C143.606 185.667 144.886 186.947 145.819 188.6C146.753 190.253 147.219 192.2 147.219 194.44C147.219 194.653 147.206 194.893 147.179 195.16C147.179 195.427 147.166 195.68 147.139 195.92H129.339V192.6H144.499L142.539 193.64C142.566 192.413 142.313 191.333 141.779 190.4C141.246 189.467 140.513 188.733 139.579 188.2C138.673 187.667 137.619 187.4 136.419 187.4C135.193 187.4 134.113 187.667 133.179 188.2C132.273 188.733 131.553 189.48 131.019 190.44C130.513 191.373 130.259 192.48 130.259 193.76V194.56C130.259 195.84 130.553 196.973 131.139 197.96C131.726 198.947 132.553 199.707 133.619 200.24C134.686 200.773 135.913 201.04 137.299 201.04C138.499 201.04 139.579 200.853 140.539 200.48C141.499 200.107 142.353 199.52 143.099 198.72L145.779 201.8C144.819 202.92 143.606 203.787 142.139 204.4C140.699 204.987 139.046 205.28 137.179 205.28Z" fill="#F8FAE5"/>
<path d="M158.622 205.28C156.835 205.28 155.115 205.053 153.462 204.6C151.835 204.12 150.542 203.547 149.582 202.88L151.502 199.08C152.462 199.693 153.609 200.2 154.942 200.6C156.275 201 157.609 201.2 158.942 201.2C160.515 201.2 161.649 200.987 162.342 200.56C163.062 200.133 163.422 199.56 163.422 198.84C163.422 198.253 163.182 197.813 162.702 197.52C162.222 197.2 161.595 196.96 160.822 196.8C160.049 196.64 159.182 196.493 158.222 196.36C157.289 196.227 156.342 196.053 155.382 195.84C154.449 195.6 153.595 195.267 152.822 194.84C152.049 194.387 151.422 193.787 150.942 193.04C150.462 192.293 150.222 191.307 150.222 190.08C150.222 188.72 150.609 187.547 151.382 186.56C152.155 185.547 153.235 184.773 154.622 184.24C156.035 183.68 157.702 183.4 159.622 183.4C161.062 183.4 162.515 183.56 163.982 183.88C165.449 184.2 166.662 184.653 167.622 185.24L165.702 189.04C164.689 188.427 163.662 188.013 162.622 187.8C161.609 187.56 160.595 187.44 159.582 187.44C158.062 187.44 156.929 187.667 156.182 188.12C155.462 188.573 155.102 189.147 155.102 189.84C155.102 190.48 155.342 190.96 155.822 191.28C156.302 191.6 156.929 191.853 157.702 192.04C158.475 192.227 159.329 192.387 160.262 192.52C161.222 192.627 162.169 192.8 163.102 193.04C164.035 193.28 164.889 193.613 165.662 194.04C166.462 194.44 167.102 195.013 167.582 195.76C168.062 196.507 168.302 197.48 168.302 198.68C168.302 200.013 167.902 201.173 167.102 202.16C166.329 203.147 165.222 203.92 163.782 204.48C162.342 205.013 160.622 205.28 158.622 205.28Z" fill="#F8FAE5"/>
<path d="M172.608 205V183.64H177.608V205H172.608ZM175.128 180.12C174.195 180.12 173.421 179.827 172.808 179.24C172.221 178.653 171.928 177.947 171.928 177.12C171.928 176.267 172.221 175.56 172.808 175C173.421 174.413 174.195 174.12 175.128 174.12C176.061 174.12 176.821 174.4 177.408 174.96C178.021 175.493 178.328 176.173 178.328 177C178.328 177.88 178.035 178.627 177.448 179.24C176.861 179.827 176.088 180.12 175.128 180.12Z" fill="#F8FAE5"/>
<path d="M197.331 205V200.68L197.051 199.76V192.2C197.051 190.733 196.611 189.6 195.731 188.8C194.851 187.973 193.517 187.56 191.731 187.56C190.531 187.56 189.344 187.747 188.171 188.12C187.024 188.493 186.051 189.013 185.251 189.68L183.291 186.04C184.437 185.16 185.797 184.507 187.371 184.08C188.971 183.627 190.624 183.4 192.331 183.4C195.424 183.4 197.811 184.147 199.491 185.64C201.197 187.107 202.051 189.387 202.051 192.48V205H197.331ZM190.611 205.28C189.011 205.28 187.611 205.013 186.411 204.48C185.211 203.92 184.277 203.16 183.611 202.2C182.971 201.213 182.651 200.107 182.651 198.88C182.651 197.68 182.931 196.6 183.491 195.64C184.077 194.68 185.024 193.92 186.331 193.36C187.637 192.8 189.371 192.52 191.531 192.52H197.731V195.84H191.891C190.184 195.84 189.037 196.12 188.451 196.68C187.864 197.213 187.571 197.88 187.571 198.68C187.571 199.587 187.931 200.307 188.651 200.84C189.371 201.373 190.371 201.64 191.651 201.64C192.877 201.64 193.971 201.36 194.931 200.8C195.917 200.24 196.624 199.413 197.051 198.32L197.891 201.32C197.411 202.573 196.544 203.547 195.291 204.24C194.064 204.933 192.504 205.28 190.611 205.28Z" fill="#F8FAE5"/>
<path d="M206.952 187.44L209.272 178.56L209.952 181.56C209.019 181.56 208.232 181.267 207.592 180.68C206.979 180.093 206.672 179.307 206.672 178.32C206.672 177.333 206.979 176.547 207.592 175.96C208.232 175.347 209.005 175.04 209.912 175.04C210.845 175.04 211.619 175.347 212.232 175.96C212.845 176.573 213.152 177.36 213.152 178.32C213.152 178.613 213.125 178.92 213.072 179.24C213.045 179.533 212.965 179.88 212.832 180.28C212.725 180.653 212.539 181.147 212.272 181.76L210.192 187.44H206.952Z" fill="#F8FAE5"/>
<path d="M223.974 205.28C222.187 205.28 220.467 205.053 218.814 204.6C217.187 204.12 215.894 203.547 214.934 202.88L216.854 199.08C217.814 199.693 218.96 200.2 220.294 200.6C221.627 201 222.96 201.2 224.294 201.2C225.867 201.2 227 200.987 227.694 200.56C228.414 200.133 228.774 199.56 228.774 198.84C228.774 198.253 228.534 197.813 228.054 197.52C227.574 197.2 226.947 196.96 226.174 196.8C225.4 196.64 224.534 196.493 223.574 196.36C222.64 196.227 221.694 196.053 220.734 195.84C219.8 195.6 218.947 195.267 218.174 194.84C217.4 194.387 216.774 193.787 216.294 193.04C215.814 192.293 215.574 191.307 215.574 190.08C215.574 188.72 215.96 187.547 216.734 186.56C217.507 185.547 218.587 184.773 219.974 184.24C221.387 183.68 223.054 183.4 224.974 183.4C226.414 183.4 227.867 183.56 229.334 183.88C230.8 184.2 232.014 184.653 232.974 185.24L231.054 189.04C230.04 188.427 229.014 188.013 227.974 187.8C226.96 187.56 225.947 187.44 224.934 187.44C223.414 187.44 222.28 187.667 221.534 188.12C220.814 188.573 220.454 189.147 220.454 189.84C220.454 190.48 220.694 190.96 221.174 191.28C221.654 191.6 222.28 191.853 223.054 192.04C223.827 192.227 224.68 192.387 225.614 192.52C226.574 192.627 227.52 192.8 228.454 193.04C229.387 193.28 230.24 193.613 231.014 194.04C231.814 194.44 232.454 195.013 232.934 195.76C233.414 196.507 233.654 197.48 233.654 198.68C233.654 200.013 233.254 201.173 232.454 202.16C231.68 203.147 230.574 203.92 229.134 204.48C227.694 205.013 225.974 205.28 223.974 205.28Z" fill="#F8FAE5"/>
<path d="M245.534 205L258.134 177H263.254L275.894 205H270.454L259.614 179.76H261.694L250.894 205H245.534ZM251.334 198.52L252.734 194.44H267.854L269.254 198.52H251.334Z" fill="#F8FAE5"/>
<path d="M288.46 213.04C286.487 213.04 284.553 212.773 282.66 212.24C280.793 211.733 279.26 210.987 278.06 210L280.3 206.24C281.233 207.013 282.407 207.627 283.82 208.08C285.26 208.56 286.713 208.8 288.18 208.8C290.527 208.8 292.247 208.253 293.34 207.16C294.433 206.093 294.98 204.48 294.98 202.32V198.52L295.38 193.68L295.22 188.84V183.64H299.98V201.76C299.98 205.627 298.993 208.467 297.02 210.28C295.047 212.12 292.193 213.04 288.46 213.04ZM287.82 204.04C285.793 204.04 283.953 203.613 282.3 202.76C280.673 201.88 279.38 200.667 278.42 199.12C277.487 197.573 277.02 195.76 277.02 193.68C277.02 191.627 277.487 189.827 278.42 188.28C279.38 186.733 280.673 185.533 282.3 184.68C283.953 183.827 285.793 183.4 287.82 183.4C289.633 183.4 291.26 183.76 292.7 184.48C294.14 185.2 295.287 186.32 296.14 187.84C297.02 189.36 297.46 191.307 297.46 193.68C297.46 196.053 297.02 198.013 296.14 199.56C295.287 201.08 294.14 202.213 292.7 202.96C291.26 203.68 289.633 204.04 287.82 204.04ZM288.58 199.8C289.833 199.8 290.953 199.547 291.94 199.04C292.927 198.507 293.687 197.787 294.22 196.88C294.78 195.947 295.06 194.88 295.06 193.68C295.06 192.48 294.78 191.427 294.22 190.52C293.687 189.587 292.927 188.88 291.94 188.4C290.953 187.893 289.833 187.64 288.58 187.64C287.327 187.64 286.193 187.893 285.18 188.4C284.193 188.88 283.42 189.587 282.86 190.52C282.327 191.427 282.06 192.48 282.06 193.68C282.06 194.88 282.327 195.947 282.86 196.88C283.42 197.787 284.193 198.507 285.18 199.04C286.193 199.547 287.327 199.8 288.58 199.8Z" fill="#F8FAE5"/>
<path d="M306.553 205V183.64H311.313V189.52L310.753 187.8C311.393 186.36 312.393 185.267 313.753 184.52C315.14 183.773 316.86 183.4 318.913 183.4V188.16C318.7 188.107 318.5 188.08 318.313 188.08C318.127 188.053 317.94 188.04 317.753 188.04C315.86 188.04 314.353 188.6 313.233 189.72C312.113 190.813 311.553 192.453 311.553 194.64V205H306.553Z" fill="#F8FAE5"/>
<path d="M323.155 205V183.64H328.155V205H323.155ZM325.675 180.12C324.742 180.12 323.968 179.827 323.355 179.24C322.768 178.653 322.475 177.947 322.475 177.12C322.475 176.267 322.768 175.56 323.355 175C323.968 174.413 324.742 174.12 325.675 174.12C326.608 174.12 327.368 174.4 327.955 174.96C328.568 175.493 328.875 176.173 328.875 177C328.875 177.88 328.582 178.627 327.995 179.24C327.408 179.827 326.635 180.12 325.675 180.12Z" fill="#F8FAE5"/>
<path d="M344.517 205.28C342.277 205.28 340.277 204.813 338.517 203.88C336.784 202.92 335.424 201.613 334.437 199.96C333.451 198.307 332.957 196.427 332.957 194.32C332.957 192.187 333.451 190.307 334.437 188.68C335.424 187.027 336.784 185.733 338.517 184.8C340.277 183.867 342.277 183.4 344.517 183.4C346.597 183.4 348.424 183.827 349.997 184.68C351.597 185.507 352.811 186.733 353.637 188.36L349.797 190.6C349.157 189.587 348.371 188.84 347.437 188.36C346.531 187.88 345.544 187.64 344.477 187.64C343.251 187.64 342.144 187.907 341.157 188.44C340.171 188.973 339.397 189.747 338.837 190.76C338.277 191.747 337.997 192.933 337.997 194.32C337.997 195.707 338.277 196.907 338.837 197.92C339.397 198.907 340.171 199.667 341.157 200.2C342.144 200.733 343.251 201 344.477 201C345.544 201 346.531 200.76 347.437 200.28C348.371 199.8 349.157 199.053 349.797 198.04L353.637 200.28C352.811 201.88 351.597 203.12 349.997 204C348.424 204.853 346.597 205.28 344.517 205.28Z" fill="#F8FAE5"/>
<path d="M367 205.28C365.186 205.28 363.586 204.947 362.2 204.28C360.813 203.587 359.733 202.547 358.96 201.16C358.186 199.747 357.8 197.973 357.8 195.84V183.64H362.8V195.16C362.8 197.08 363.226 198.52 364.08 199.48C364.96 200.413 366.2 200.88 367.8 200.88C368.973 200.88 369.986 200.64 370.84 200.16C371.72 199.68 372.4 198.96 372.88 198C373.386 197.04 373.64 195.853 373.64 194.44V183.64H378.64V205H373.88V199.24L374.72 201C374 202.387 372.946 203.453 371.56 204.2C370.173 204.92 368.653 205.28 367 205.28Z" fill="#F8FAE5"/>
<path d="M385.186 205V175.32H390.186V205H385.186Z" fill="#F8FAE5"/>
<path d="M405.843 205.28C403.497 205.28 401.683 204.68 400.403 203.48C399.123 202.253 398.483 200.453 398.483 198.08V178.92H403.483V197.96C403.483 198.973 403.737 199.76 404.243 200.32C404.777 200.88 405.51 201.16 406.443 201.16C407.563 201.16 408.497 200.867 409.243 200.28L410.643 203.84C410.057 204.32 409.337 204.68 408.483 204.92C407.63 205.16 406.75 205.28 405.843 205.28ZM394.963 187.8V183.8H409.203V187.8H394.963Z" fill="#F8FAE5"/>
<path d="M423.796 205.28C421.983 205.28 420.383 204.947 418.996 204.28C417.61 203.587 416.53 202.547 415.756 201.16C414.983 199.747 414.596 197.973 414.596 195.84V183.64H419.596V195.16C419.596 197.08 420.023 198.52 420.876 199.48C421.756 200.413 422.996 200.88 424.596 200.88C425.77 200.88 426.783 200.64 427.636 200.16C428.516 199.68 429.196 198.96 429.676 198C430.183 197.04 430.436 195.853 430.436 194.44V183.64H435.436V205H430.676V199.24L431.516 201C430.796 202.387 429.743 203.453 428.356 204.2C426.97 204.92 425.45 205.28 423.796 205.28Z" fill="#F8FAE5"/>
<path d="M441.983 205V183.64H446.743V189.52L446.183 187.8C446.823 186.36 447.823 185.267 449.183 184.52C450.57 183.773 452.29 183.4 454.343 183.4V188.16C454.13 188.107 453.93 188.08 453.743 188.08C453.556 188.053 453.37 188.04 453.183 188.04C451.29 188.04 449.783 188.6 448.663 189.72C447.543 190.813 446.983 192.453 446.983 194.64V205H441.983Z" fill="#F8FAE5"/>
<path d="M468.429 205.28C466.056 205.28 463.976 204.813 462.189 203.88C460.429 202.92 459.056 201.613 458.069 199.96C457.109 198.307 456.629 196.427 456.629 194.32C456.629 192.187 457.096 190.307 458.029 188.68C458.989 187.027 460.296 185.733 461.949 184.8C463.629 183.867 465.536 183.4 467.669 183.4C469.749 183.4 471.603 183.853 473.229 184.76C474.856 185.667 476.136 186.947 477.069 188.6C478.003 190.253 478.469 192.2 478.469 194.44C478.469 194.653 478.456 194.893 478.429 195.16C478.429 195.427 478.416 195.68 478.389 195.92H460.589V192.6H475.749L473.789 193.64C473.816 192.413 473.563 191.333 473.029 190.4C472.496 189.467 471.763 188.733 470.829 188.2C469.923 187.667 468.869 187.4 467.669 187.4C466.443 187.4 465.363 187.667 464.429 188.2C463.523 188.733 462.803 189.48 462.269 190.44C461.763 191.373 461.509 192.48 461.509 193.76V194.56C461.509 195.84 461.803 196.973 462.389 197.96C462.976 198.947 463.803 199.707 464.869 200.24C465.936 200.773 467.163 201.04 468.549 201.04C469.749 201.04 470.829 200.853 471.789 200.48C472.749 200.107 473.603 199.52 474.349 198.72L477.029 201.8C476.069 202.92 474.856 203.787 473.389 204.4C471.949 204.987 470.296 205.28 468.429 205.28Z" fill="#F8FAE5"/>
<path d="M499.607 188.64H513.527V192.92H499.607V188.64ZM500.007 200.64H515.807V205H494.807V177H515.247V181.36H500.007V200.64Z" fill="#F8FAE5"/>
<path d="M517.852 205L527.252 192.76L527.172 195.44L518.212 183.64H523.772L530.052 192.04H527.932L534.252 183.64H539.652L530.612 195.44L530.652 192.76L540.012 205H534.372L527.772 196.08L529.852 196.36L523.372 205H517.852Z" fill="#F8FAE5"/>
<path d="M555.542 205.28C553.808 205.28 552.222 204.88 550.782 204.08C549.368 203.28 548.235 202.08 547.382 200.48C546.555 198.853 546.142 196.8 546.142 194.32C546.142 191.813 546.542 189.76 547.342 188.16C548.168 186.56 549.288 185.373 550.702 184.6C552.115 183.8 553.728 183.4 555.542 183.4C557.648 183.4 559.502 183.853 561.102 184.76C562.728 185.667 564.008 186.933 564.942 188.56C565.902 190.187 566.382 192.107 566.382 194.32C566.382 196.533 565.902 198.467 564.942 200.12C564.008 201.747 562.728 203.013 561.102 203.92C559.502 204.827 557.648 205.28 555.542 205.28ZM543.702 212.76V183.64H548.462V188.68L548.302 194.36L548.702 200.04V212.76H543.702ZM554.982 201C556.182 201 557.248 200.733 558.182 200.2C559.142 199.667 559.902 198.893 560.462 197.88C561.022 196.867 561.302 195.68 561.302 194.32C561.302 192.933 561.022 191.747 560.462 190.76C559.902 189.747 559.142 188.973 558.182 188.44C557.248 187.907 556.182 187.64 554.982 187.64C553.782 187.64 552.702 187.907 551.742 188.44C550.782 188.973 550.022 189.747 549.462 190.76C548.902 191.747 548.622 192.933 548.622 194.32C548.622 195.68 548.902 196.867 549.462 197.88C550.022 198.893 550.782 199.667 551.742 200.2C552.702 200.733 553.782 201 554.982 201Z" fill="#F8FAE5"/>
<path d="M580.724 205.28C578.537 205.28 576.59 204.813 574.884 203.88C573.177 202.92 571.83 201.613 570.844 199.96C569.857 198.307 569.364 196.427 569.364 194.32C569.364 192.187 569.857 190.307 570.844 188.68C571.83 187.027 573.177 185.733 574.884 184.8C576.59 183.867 578.537 183.4 580.724 183.4C582.937 183.4 584.897 183.867 586.604 184.8C588.337 185.733 589.684 187.013 590.644 188.64C591.63 190.267 592.124 192.16 592.124 194.32C592.124 196.427 591.63 198.307 590.644 199.96C589.684 201.613 588.337 202.92 586.604 203.88C584.897 204.813 582.937 205.28 580.724 205.28ZM580.724 201C581.95 201 583.044 200.733 584.004 200.2C584.964 199.667 585.71 198.893 586.244 197.88C586.804 196.867 587.084 195.68 587.084 194.32C587.084 192.933 586.804 191.747 586.244 190.76C585.71 189.747 584.964 188.973 584.004 188.44C583.044 187.907 581.964 187.64 580.764 187.64C579.537 187.64 578.444 187.907 577.484 188.44C576.55 188.973 575.804 189.747 575.244 190.76C574.684 191.747 574.404 192.933 574.404 194.32C574.404 195.68 574.684 196.867 575.244 197.88C575.804 198.893 576.55 199.667 577.484 200.2C578.444 200.733 579.524 201 580.724 201Z" fill="#F8FAE5"/>
<path d="M596.905 205V183.64H601.665V189.52L601.105 187.8C601.745 186.36 602.745 185.267 604.105 184.52C605.492 183.773 607.212 183.4 609.265 183.4V188.16C609.052 188.107 608.852 188.08 608.665 188.08C608.478 188.053 608.292 188.04 608.105 188.04C606.212 188.04 604.705 188.6 603.585 189.72C602.465 190.813 601.905 192.453 601.905 194.64V205H596.905Z" fill="#F8FAE5"/>
<path d="M622.328 205.28C619.981 205.28 618.168 204.68 616.888 203.48C615.608 202.253 614.968 200.453 614.968 198.08V178.92H619.968V197.96C619.968 198.973 620.221 199.76 620.728 200.32C621.261 200.88 621.994 201.16 622.928 201.16C624.048 201.16 624.981 200.867 625.728 200.28L627.128 203.84C626.541 204.32 625.821 204.68 624.968 204.92C624.114 205.16 623.234 205.28 622.328 205.28ZM611.448 187.8V183.8H625.688V187.8H611.448Z" fill="#F8FAE5"/>
<path d="M640.578 205.28C638.204 205.28 636.124 204.813 634.338 203.88C632.578 202.92 631.204 201.613 630.218 199.96C629.258 198.307 628.778 196.427 628.778 194.32C628.778 192.187 629.244 190.307 630.178 188.68C631.138 187.027 632.444 185.733 634.098 184.8C635.778 183.867 637.684 183.4 639.818 183.4C641.898 183.4 643.751 183.853 645.378 184.76C647.004 185.667 648.284 186.947 649.218 188.6C650.151 190.253 650.618 192.2 650.618 194.44C650.618 194.653 650.604 194.893 650.578 195.16C650.578 195.427 650.564 195.68 650.538 195.92H632.738V192.6H647.898L645.938 193.64C645.964 192.413 645.711 191.333 645.178 190.4C644.644 189.467 643.911 188.733 642.978 188.2C642.071 187.667 641.018 187.4 639.818 187.4C638.591 187.4 637.511 187.667 636.578 188.2C635.671 188.733 634.951 189.48 634.418 190.44C633.911 191.373 633.658 192.48 633.658 193.76V194.56C633.658 195.84 633.951 196.973 634.538 197.96C635.124 198.947 635.951 199.707 637.018 200.24C638.084 200.773 639.311 201.04 640.698 201.04C641.898 201.04 642.978 200.853 643.938 200.48C644.898 200.107 645.751 199.52 646.498 198.72L649.178 201.8C648.218 202.92 647.004 203.787 645.538 204.4C644.098 204.987 642.444 205.28 640.578 205.28Z" fill="#F8FAE5"/>
<path d="M655.421 205V183.64H660.181V189.52L659.621 187.8C660.261 186.36 661.261 185.267 662.621 184.52C664.007 183.773 665.727 183.4 667.781 183.4V188.16C667.567 188.107 667.367 188.08 667.181 188.08C666.994 188.053 666.807 188.04 666.621 188.04C664.727 188.04 663.221 188.6 662.101 189.72C660.981 190.813 660.421 192.453 660.421 194.64V205H655.421Z" fill="#F8FAE5"/>
</svg>
