<svg width="100" height="97" viewBox="0 0 100 97" fill="none" xmlns="http://www.w3.org/2000/svg">
<ellipse cx="49.8227" cy="48.5" rx="49.8227" ry="48.5" fill="#B1C381"/>
<path d="M73.2163 29.3016C73.2163 32.0985 70.8813 34.3658 68.0009 34.3658C65.1206 34.3658 62.7856 32.0985 62.7856 29.3016C62.7856 26.5047 65.1206 24.2374 68.0009 24.2374C70.8813 24.2374 73.2163 26.5047 73.2163 29.3016Z" fill="white"/>
<path fill-rule="evenodd" clip-rule="evenodd" d="M48.8781 64.7507C58.4792 64.7507 66.2625 57.193 66.2625 47.8702C66.2625 38.5473 58.4792 30.9897 48.8781 30.9897C39.2769 30.9897 31.4937 38.5473 31.4937 47.8702C31.4937 57.193 39.2769 64.7507 48.8781 64.7507ZM48.8781 57.9985C54.6388 57.9985 59.3087 53.4639 59.3087 47.8702C59.3087 42.2765 54.6388 37.7419 48.8781 37.7419C43.1174 37.7419 38.4474 42.2765 38.4474 47.8702C38.4474 53.4639 43.1174 57.9985 48.8781 57.9985Z" fill="white"/>
<path fill-rule="evenodd" clip-rule="evenodd" d="M14.1093 46.5197C14.1093 35.175 14.1093 29.5026 16.383 25.1694C18.383 21.3579 21.5744 18.259 25.4997 16.317C29.9622 14.1091 35.8039 14.1091 47.4873 14.1091H50.2688C61.9523 14.1091 67.794 14.1091 72.2564 16.317C76.1817 18.259 79.3731 21.3579 81.3732 25.1694C83.6469 29.5026 83.6469 35.175 83.6469 46.5197V49.2206C83.6469 60.5654 83.6469 66.2378 81.3732 70.5709C79.3731 74.3824 76.1817 77.4813 72.2564 79.4234C67.794 81.6312 61.9523 81.6312 50.2688 81.6312H47.4873C35.8039 81.6312 29.9622 81.6312 25.4997 79.4234C21.5744 77.4813 18.383 74.3824 16.383 70.5709C14.1093 66.2378 14.1093 60.5654 14.1093 49.2206V46.5197ZM47.4873 20.8613H50.2688C56.2253 20.8613 60.2744 20.8666 63.4042 21.1149C66.4529 21.3568 68.0119 21.7952 69.0995 22.3332C71.7164 23.6279 73.844 25.6939 75.1773 28.2349C75.7315 29.2909 76.1829 30.8048 76.432 33.7651C76.6877 36.8042 76.6931 40.7359 76.6931 46.5197V49.2206C76.6931 55.0044 76.6877 58.9362 76.432 61.9753C76.1829 64.9355 75.7315 66.4494 75.1773 67.5055C73.844 70.0465 71.7164 72.1124 69.0995 73.4071C68.0119 73.9452 66.4529 74.3836 63.4042 74.6254C60.2744 74.8738 56.2253 74.879 50.2688 74.879H47.4873C41.5309 74.879 37.4817 74.8738 34.3519 74.6254C31.3033 74.3836 29.7442 73.9452 28.6567 73.4071C26.0398 72.1124 23.9122 70.0465 22.5788 67.5055C22.0247 66.4494 21.5732 64.9355 21.3241 61.9753C21.0684 58.9362 21.063 55.0044 21.063 49.2206V46.5197C21.063 40.7359 21.0684 36.8042 21.3241 33.7651C21.5732 30.8048 22.0247 29.2909 22.5788 28.2349C23.9122 25.6939 26.0398 23.6279 28.6567 22.3332C29.7442 21.7952 31.3033 21.3568 34.3519 21.1149C37.4817 20.8666 41.5309 20.8613 47.4873 20.8613Z" fill="white"/>
</svg>
